<?xml version="1.0" standalone="no"?>
<!DOCTYPE svg PUBLIC "-//W3C//DTD SVG 20010904//EN"
 "http://www.w3.org/TR/2001/REC-SVG-20010904/DTD/svg10.dtd">
<svg version="1.0" xmlns="http://www.w3.org/2000/svg"
 width="113.000000pt" height="141.000000pt" viewBox="0 0 113.000000 141.000000"
 preserveAspectRatio="xMidYMid meet">

<g transform="translate(0.000000,141.000000) scale(0.100000,-0.100000)"
fill="#000000" stroke="none">
<path d="M324 1168 c-245 -249 -268 -280 -303 -408 -27 -95 -27 -185 0 -280
32 -117 63 -164 208 -313 l135 -138 96 96 c52 52 100 95 106 95 5 0 52 -44
104 -97 l93 -97 123 127 c191 198 229 276 229 467 0 137 -16 198 -75 289 -43
66 -454 491 -475 491 -6 0 -115 -105 -241 -232z m419 -127 c195 -197 220 -234
240 -362 20 -133 -20 -247 -134 -375 -35 -40 -70 -75 -78 -78 -14 -7 -101 73
-101 92 0 6 25 39 56 74 91 102 109 140 109 228 0 58 -5 85 -23 118 -27 50
-228 262 -249 262 -17 0 -218 -206 -245 -250 -30 -50 -39 -131 -22 -196 17
-65 14 -62 103 -162 l65 -73 -53 -52 -53 -52 -74 79 c-125 133 -165 250 -139
402 20 111 52 159 238 351 93 95 172 173 176 173 4 0 87 -80 184 -179z m-121
-278 c68 -71 78 -89 78 -146 0 -49 -27 -93 -100 -162 l-42 -40 -60 65 c-108
117 -107 162 6 288 27 28 51 52 55 52 4 0 32 -26 63 -57z"/>
</g>
</svg>
