<svg xmlns="http://www.w3.org/2000/svg" viewBox="0 0 45 45" fill="none">
    <!-- Fundo quadrado perfeito para o Favicon preencher a aba -->
    <rect width="45" height="45" rx="8" fill="#1E1E1E"/>
    
    <!-- O logo original foi centralizado (movido 4.5px pra direita) -->
    <g transform="translate(4.5, 0)">
        <path d="M10.7343 7.056C3.10234 14.664 2.11834 15.912 0.99034 19.32C-0.30566 23.184 -0.32966 27 0.91834 30.84C1.99834 34.176 3.19834 35.88 7.63834 40.272L11.5503 44.16L14.7183 40.992L17.9103 37.8L21.1023 40.992L24.2943 44.16L28.0863 40.344C31.9983 36.432 32.8143 35.448 34.0143 33.072C36.3423 28.488 36.3663 21.984 34.0863 17.448C32.8383 14.952 31.5903 13.512 24.9423 6.864C21.1503 3.096 18.0063 -1.49012e-07 17.9103 -1.49012e-07C17.8383 -1.49012e-07 14.5983 3.168 10.7343 7.056ZM23.5743 11.592C28.4703 16.56 29.1663 17.376 29.9823 19.008C31.0143 21.072 31.6863 24.36 31.4703 26.16C30.9903 30.048 29.8383 32.352 26.8383 35.544C25.5903 36.84 24.4863 37.92 24.3903 37.92C24.0543 37.92 21.2703 35.136 21.2703 34.8C21.2703 34.632 22.1823 33.552 23.2863 32.4C26.1423 29.424 26.9583 27.576 26.7423 24.528C26.5263 21.648 25.8543 20.544 21.6063 16.32L17.9103 12.6L14.1903 16.344C9.89434 20.664 9.27034 21.696 9.07834 24.648C8.98234 26.04 9.07834 26.736 9.53434 28.128C10.0383 29.688 10.2783 30.048 12.4383 32.304L14.8143 34.776L13.2783 36.336C12.4143 37.2 11.6223 37.92 11.4783 37.92C11.3583 37.92 10.2063 36.84 8.93434 35.496C6.12634 32.544 5.11834 30.672 4.54234 27.408C4.18234 25.368 4.18234 25.032 4.54234 22.992C5.23834 19.008 5.91034 18.024 12.2463 11.592C15.2703 8.52 17.8143 6 17.9103 6C18.0063 6 20.5503 8.52 23.5743 11.592ZM19.7583 20.52C20.7183 21.504 21.7263 22.752 21.9903 23.28C23.0463 25.344 22.3983 27.216 19.7103 29.928L17.8863 31.752L16.0143 29.784C14.9583 28.704 13.9503 27.456 13.7343 27.024C13.2303 25.944 13.2543 24.312 13.8063 23.28C14.1903 22.56 17.5743 18.792 17.8863 18.744C17.9583 18.72 18.7743 19.536 19.7583 20.52Z" fill="#3A5A2E"/>
    </g>
</svg>
