<?xml version="1.0" standalone="no"?>
<!DOCTYPE svg PUBLIC "-//W3C//DTD SVG 20010904//EN"
 "http://www.w3.org/TR/2001/REC-SVG-20010904/DTD/svg10.dtd">
<svg version="1.0" xmlns="http://www.w3.org/2000/svg"
 width="500.000000pt" height="500.000000pt" viewBox="0 0 500.000000 500.000000"
 preserveAspectRatio="xMidYMid meet">

<g transform="translate(0.000000,500.000000) scale(0.100000,-0.100000)"
fill="#000000" stroke="none">
<path d="M2201 3256 c-318 -317 -359 -369 -406 -511 -54 -161 -55 -320 -3
-480 45 -139 95 -210 280 -393 l163 -162 132 132 133 133 133 -133 133 -132
158 159 c163 163 197 204 247 303 97 191 98 462 3 651 -52 104 -104 164 -381
441 -158 157 -289 286 -293 286 -3 0 -138 -132 -299 -294z m535 -189 c204
-207 233 -241 267 -309 43 -86 71 -223 62 -298 -20 -162 -68 -258 -193 -391
-52 -54 -98 -99 -102 -99 -14 0 -130 116 -130 130 0 7 38 52 84 100 119 124
153 201 144 328 -9 120 -37 166 -214 342 l-154 155 -155 -156 c-179 -180 -205
-223 -213 -346 -4 -58 0 -87 19 -145 21 -65 31 -80 121 -174 l99 -103 -64 -65
c-36 -36 -69 -66 -75 -66 -5 0 -53 45 -106 101 -117 123 -159 201 -183 337
-15 85 -15 99 0 184 29 166 57 207 321 475 126 128 232 233 236 233 4 0 110
-105 236 -233z m-159 -372 c40 -41 82 -93 93 -115 44 -86 17 -164 -95 -277
l-76 -76 -78 82 c-44 45 -86 97 -95 115 -21 45 -20 113 3 156 16 30 157 187
170 189 3 1 37 -33 78 -74z"/>
</g>
</svg>
